<svg width="59" height="47" viewBox="0 0 59 47" fill="none" xmlns="http://www.w3.org/2000/svg">
<path d="M48.305 15.1924C48.2686 24.3041 45.6956 33.0324 41.152 39.4572C36.6084 45.882 30.6037 46.1623 24.2145 46.1368C17.8253 46.1113 11.575 45.7821 7.0829 39.3211C2.59078 32.8602 0.0875777 24.1116 0.123966 15L24.2145 15.0962L48.305 15.1924Z" fill="#285077"/>
<path d="M46.1201 21.8451C50.0429 20.461 57.7326 19.7988 55.9271 27.9139C54.2926 35.2603 47.4277 37.2832 42.1973 35.2603" stroke="#285077" stroke-width="5" stroke-linejoin="round"/>
<path d="M32.605 3.03036C30.2285 4.15084 28.1084 5.56258 26.7109 6.95503C25.3134 8.34748 22.8331 10.5119 23.2332 11.3606C23.6334 12.2093 26.8813 11.6729 28.8447 11.4808C30.8081 11.2886 33.2462 10.5512 35.6227 9.43073C37.9992 8.31025 41.6287 5.57679 40.517 3.21877C39.4052 0.86075 34.9815 1.90989 32.605 3.03036Z" fill="#366284"/>
<path d="M10.4529 9.53758C12.8389 10.6378 15.2831 11.3545 17.2481 11.53C19.213 11.7055 22.4654 12.2143 22.8583 11.3622C23.2513 10.5101 20.7526 8.36684 19.3434 6.98631C17.9342 5.60578 15.8021 4.21208 13.4162 3.11183C11.0303 2.01157 6.60327 0.988174 5.51156 3.35555C4.41985 5.72293 8.06705 8.43732 10.4529 9.53758Z" fill="#366284"/>
</svg>
